<svg xmlns="http://www.w3.org/2000/svg" viewBox="0 0 271.49 49.15"><defs><style>.cls-1{fill:#fff;}</style></defs><g id="Layer_2" data-name="Layer 2"><g id="Layer_1-2" data-name="Layer 1"><polygon class="cls-1" points="20.24 5.5 0 13.8 0.04 19.97 20.24 27.56 20.24 5.5"/><polygon class="cls-1" points="0.25 48.35 9.42 48.35 9.42 26.17 0.07 22.66 0.25 48.35"/><polygon class="cls-1" points="28.63 2.06 22.75 4.47 22.75 28.5 32.9 32.32 32.9 24.33 32.9 0.31 28.63 2.06"/><polygon class="cls-1" points="11.93 48.35 16.35 48.35 16.35 28.78 11.93 27.12 11.93 48.35"/><polygon class="cls-1" points="32.9 48.35 32.9 48.35 26.78 48.35 32.9 48.35"/><polygon class="cls-1" points="0.25 48.35 0.25 48.35 0.21 42.71 0.25 48.35"/><polygon class="cls-1" points="18.86 48.35 32.9 48.35 32.9 35 18.86 29.72 18.86 48.35"/><path class="cls-1" d="M135.89,20.56a12.31,12.31,0,0,0-7-3.64,13.4,13.4,0,0,0-7.86.59,14.79,14.79,0,0,0-6.25,4.73,17.87,17.87,0,0,0-3.47,7.55,17.15,17.15,0,0,0,.26,8.47,15.21,15.21,0,0,0,4.15,6.85,14.46,14.46,0,0,0,7.06,3.66,15.75,15.75,0,0,0,14-3.62l-.81-.76a11.92,11.92,0,0,1-10.1,2.3,10.3,10.3,0,0,1-5.2-2.62,11.48,11.48,0,0,1-3-5.53,23.62,23.62,0,0,1-1.26-6.69l22.32-.19a13.17,13.17,0,0,0,0-5.39A11.87,11.87,0,0,0,135.89,20.56ZM116.5,30.61a23.85,23.85,0,0,1,.43-4.19,12.17,12.17,0,0,1,3.6-6.81,7.49,7.49,0,0,1,6.91-1.51,7.21,7.21,0,0,1,5.38,4.54,17.42,17.42,0,0,1,1.4,7.74Z"/><polygon class="cls-1" points="47.64 48.36 52.76 48.36 52.76 16.83 47.64 18.87 47.64 48.36"/><path class="cls-1" d="M76.07,16.36c-4.72,0-8.48,1.85-12.36,5.43v-5l-5,2.07V48.35h5V22.92c3.64-3.46,6.57-5.29,10.45-5.29,8.23,0,6.64,7.68,6.64,10.31V48.35h5.12V27.46C85.92,19.88,82.57,16.36,76.07,16.36Z"/><path class="cls-1" d="M104.46,48.33c-5.49,0-5.54-5.77-5.54-7.62l0-21.32h11l0-2.32h-11V7.42L93.7,9.58v7.49l-5.17,0v2.24l5.16.06,0,21.8c0,2.15,2.32,7.88,9.36,7.88a13.77,13.77,0,0,0,7.23-2.21l-.48-.72C107.75,47.28,105.9,48.33,104.46,48.33Z"/><path class="cls-1" d="M148.72,23.08V16.63l-5,2.05V48.36h5V23.77a7,7,0,0,1,7.83-3.49,18.18,18.18,0,0,1,3.25,1.39l1.88-4.8a12.62,12.62,0,0,0-2.93-.36C154.57,16.51,151.35,19.08,148.72,23.08Z"/><polygon class="cls-1" points="166.81 48.35 171.92 48.35 171.92 0 166.81 2.11 166.81 48.35"/><path class="cls-1" d="M193.07,16.55C188.78,16.55,183,18,179.71,21l.54.65c3-2.56,5.73-3.75,9.08-3.75,5.48,0,8.11,3.28,8.11,10v3.58c-2,.12-4.12.3-6.21.54-8.12,1-13.73,4.12-13.73,9.84,0,4.49,3.46,7.05,8.24,7.05a17.84,17.84,0,0,0,11.7-4.72v4.11h5.42V27.66C202.86,20,199.52,16.55,193.07,16.55Zm4.37,26.57c-2.93,2.86-5.76,3.36-9,3.36-3.88,0-6.7-2.07-7-6.76-.44-6.36,7.69-7,16.07-6.71Z"/><path class="cls-1" d="M227.58,16.36c-4.71,0-8.47,1.85-12.35,5.43V16.6l-5,2.07V48.35h5V22.92c3.64-3.46,6.57-5.29,10.45-5.29,8.23,0,6.64,7.68,6.64,10.31V48.35h5.11V27.46C237.43,19.88,234.09,16.36,227.58,16.36Z"/><path class="cls-1" d="M266,2.25v18a13.75,13.75,0,0,0-9.61-3.88c-7.92,0-14.79,6.63-14.79,16.77,0,9.31,5.66,15.94,13.43,15.94A15.22,15.22,0,0,0,266,44v4.38h5.46V0Zm0,40.31h0a14.18,14.18,0,0,1-10.19,5.08c-6.15,0-9.09-6-9.09-15.12,0-9.37,3.24-15.21,9.74-15.21a10.7,10.7,0,0,1,9.56,6Z"/><rect class="cls-1" x="47.64" y="7.52" width="5.08" height="5.08"/></g></g></svg>